<svg xmlns="http://www.w3.org/2000/svg" viewBox="0 0 2432.89 2001.87"><defs><style>.cls-1{fill:#91e5f9;opacity:0.32;}.cls-2{fill:#fc90d8;}</style></defs><title>1</title><g id="Шар_4" data-name="Шар 4"><path class="cls-1" d="M1587.41,492.66a847.29,847.29,0,0,1,371.15,0,2516.29,2516.29,0,0,1,531,186.47,307.35,307.35,0,0,1,108,99c44.63,67.17,50.25,133.66,51,162a867.35,867.35,0,0,1-123.13,446.82" transform="translate(-215.64 -386)"/></g><g id="Шар_3" data-name="Шар 3"><path class="cls-2" d="M226,1446c-5.71-36.12-83.69-584.56,296-892C661.11,441.36,811.75,401.48,910,386A3298,3298,0,0,1,2214,730c43.8,22.29,190,103.46,272,284,85.14,187.35,44.64,357.14,32,403.32A1370.69,1370.69,0,0,1,2150,2198c-45.13,53.54-92.37,90.41-136.39,116.37-380,224-915.52-132.91-955.61-160.37-123.27-59.67-253.36-128.5-388-208-101.36-59.85-196-120.25-284-180-31.59-25-90.79-78.86-128-168A418.31,418.31,0,0,1,226,1446Z" transform="translate(-215.64 -386)"/></g></svg>