<svg id="Шар_1" data-name="Шар 1" xmlns="http://www.w3.org/2000/svg" viewBox="0 0 204.6 225.47"><defs><style>.cls-1,.cls-3{fill:#e8f6fe;}.cls-1,.cls-2,.cls-3,.cls-5{stroke:#c4cddf;stroke-miterlimit:10;}.cls-1{stroke-opacity:0.59;}.cls-2{fill:#97b3d7;}.cls-2,.cls-3{stroke-width:2px;}.cls-4{opacity:0.59;}.cls-5{fill:none;}</style></defs><title>flyy1</title><path class="cls-1" d="M280.82,204.29l3-6.16s1.36-2.51,3,0l3,6.16" transform="translate(-183 -189.2)"/><path class="cls-2" d="M251.16,392.82l34.14,20.67,32.31-20.67S303.7,220.26,285.43,225.94C285.43,225.94,241.9,315.68,251.16,392.82Z" transform="translate(-183 -189.2)"/><path class="cls-3" d="M288.69,192.22,386.25,388a3.38,3.38,0,0,1-3,4.87H318.37c-10.29,0-22.79-155.56-33.07-155.56-10.63,0-23.51,155.56-34.14,155.56H187.38a3.37,3.37,0,0,1-3-4.87l97.8-195.73A3.65,3.65,0,0,1,288.69,192.22Z" transform="translate(-183 -189.2)"/><path class="cls-2" d="M285.3,413.49v0Z" transform="translate(-183 -189.2)"/><line class="cls-1" x1="142.59" y1="91.93" x2="110.56" y2="26.55"/><g class="cls-4"><path class="cls-5" d="M221.06,386.82H195.57a2.45,2.45,0,0,1-2.21-3.52l0-.1,27.65-54.41" transform="translate(-183 -189.2)"/></g></svg>