<svg id="Шар_1" data-name="Шар 1" xmlns="http://www.w3.org/2000/svg" viewBox="0 0 172.3 282.67"><defs><style>.cls-1,.cls-2{fill:#e8f6fe;}.cls-1,.cls-2,.cls-8,.cls-9{stroke:#97b3d7;}.cls-1,.cls-10,.cls-2,.cls-3,.cls-4,.cls-5,.cls-6,.cls-7,.cls-8,.cls-9{stroke-miterlimit:10;}.cls-1{opacity:0.79;}.cls-3,.cls-4{fill:#e882b8;}.cls-3,.cls-4,.cls-7{stroke:#e8f6fe;}.cls-4,.cls-5{stroke-width:2px;}.cls-5,.cls-6,.cls-7,.cls-9{fill:none;}.cls-5{stroke:#e882b8;}.cls-10,.cls-6{stroke:#c4cddf;}.cls-11,.cls-8{fill:#97b3d7;}.cls-10{fill:#bff8fd;}</style></defs><title>fly2</title><path class="cls-1" d="M241.4,377v11.85s10.43,5.42,25.69,0C267.09,388.81,293,376.43,241.4,377Z" transform="translate(-204.07 -131.3)"/><path class="cls-2" d="M241.4,386.72V407s-.3,5.78,3.65,6.29,17.9,0,17.9,0c5.33-.34,4.92-4.75,4.77-11.81-.15-6.72,0-14.53,0-14.53S254.06,382.82,241.4,386.72Z" transform="translate(-204.07 -131.3)"/><path class="cls-2" d="M339.11,375.76l.31,11.85s-10.29,5.69-25.68.66C313.74,388.27,287.5,376.55,339.11,375.76Z" transform="translate(-204.07 -131.3)"/><path class="cls-2" d="M339.36,385.52l.52,20.23s.44,5.76-3.49,6.38-17.9.45-17.9.45c-5.33-.2-4.76-6.27-4.79-13.33,0-6.72-.65-12.87-.65-12.87S326.62,382,339.36,385.52Z" transform="translate(-204.07 -131.3)"/><path class="cls-3" d="M262.9,216.68V167.52c0-4.71,1.72-9.11,2.88-13.68,2.31-9.1,11.09-20.72,22.13-22a10.69,10.69,0,0,1,3.29.17c5,1,17.89,6,22.94,30.38a11.46,11.46,0,0,1,.24,2.41v51.86" transform="translate(-204.07 -131.3)"/><path class="cls-4" d="M238.3,312.27v-94a6.36,6.36,0,0,1,.06-.87c.4-2.93,2.94-19.54,9.63-24.54a4.68,4.68,0,0,1,5.38-.19c3.2,2.1,8.63,7.95,11,24C264.36,216.66,300,319.75,238.3,312.27Z" transform="translate(-204.07 -131.3)"/><path class="cls-4" d="M338.5,313.18l-.86-94a6.36,6.36,0,0,0-.06-.87c-.43-2.93-3.12-19.51-9.86-24.45a4.66,4.66,0,0,0-5.38-.14c-3.18,2.12-8.56,8-10.77,24.13C311.57,217.81,276.92,321.23,338.5,313.18Z" transform="translate(-204.07 -131.3)"/><path class="cls-5" d="M286,154.61" transform="translate(-204.07 -131.3)"/><line class="cls-6" x1="84.57" y1="104.98" x2="86.22" y2="219.25"/><path class="cls-7" d="M239.14,246.36s12.27,2.63,22,0" transform="translate(-204.07 -131.3)"/><path class="cls-7" d="M239.14,221.1s15.79,2.63,25.51,0" transform="translate(-204.07 -131.3)"/><path class="cls-7" d="M313.66,220.52s13.67,2.63,23.39,0" transform="translate(-204.07 -131.3)"/><path class="cls-7" d="M317.86,249.61a40.75,40.75,0,0,0,19.19,0" transform="translate(-204.07 -131.3)"/><path class="cls-7" d="M320.68,274s6.65,2.62,16.37,0" transform="translate(-204.07 -131.3)"/><path class="cls-7" d="M239.14,271.62a40.45,40.45,0,0,0,19.16,0" transform="translate(-204.07 -131.3)"/><path class="cls-2" d="M290,401.31c14.6-.72,21-5.5,23.84-7.85a5.82,5.82,0,0,0,2-3.32,17,17,0,0,0-.28-7.15,1.4,1.4,0,0,1,1.1-1.69c7.61-1.37,42.45-7.9,55.46-15.35a7.38,7.38,0,0,0,3.68-5.65c.36-3.34-.82-12.94-1.9-16,0,0-2.42-6.92-15-16.1,0,0-23.07-18.56-33-33,0,0-1.91-1.34-4.47-15.11v0c-.11-1.05-13.08-124.15-32.46-125.86l-1.6,0c-19.32,2.11-29.74,125-29.87,126.49v0c-2.54,14.11-4.16,15.2-4.16,15.2-9.67,14.64-33.35,33.7-33.35,33.7-11.47,8.64-14,17.19-14,17.19-1.06,3.16-1.67,12.24-1.23,15.56a6.68,6.68,0,0,0,3.23,4.91c11.7,6.72,42.78,13.66,53.89,14.11,4.34.18,3.4,2.21,3.19,4.25a15.65,15.65,0,0,0,.19,4.85,6,6,0,0,0,2.11,3.42c2.89,2.3,9.6,7,24.15,7.39" transform="translate(-204.07 -131.3)"/><path class="cls-6" d="M256.16,311.22s.12,36.7,4.93,56.64" transform="translate(-204.07 -131.3)"/><path class="cls-8" d="M204.73,354.11l51.71,11.09s10.78,1.65,8.5,17.62" transform="translate(-204.07 -131.3)"/><path class="cls-8" d="M315.13,382.64c-2.11-16,8.68-17.53,8.68-17.53l51.84-10.52" transform="translate(-204.07 -131.3)"/><path class="cls-8" d="M265.25,382.64" transform="translate(-204.07 -131.3)"/><path class="cls-2" d="M265.25,382.64" transform="translate(-204.07 -131.3)"/><path class="cls-9" d="M265.25,382.64s25-15.79,50.08,0" transform="translate(-204.07 -131.3)"/><path class="cls-9" d="M267.8,394.35s20.35-16.21,45.47-.42" transform="translate(-204.07 -131.3)"/><path class="cls-10" d="M305.42,220.45c0,5.52-7.51,0-16.78,0s-16.78,5.52-16.78,0,7.52-10,16.78-10S305.42,214.93,305.42,220.45Z" transform="translate(-204.07 -131.3)"/><path class="cls-6" d="M319.61,298.4s3.77,39.21-1.75,59" transform="translate(-204.07 -131.3)"/><line class="cls-6" x1="52.09" y1="172.88" x2="52.09" y2="165.58"/><path class="cls-6" d="M265.25,342.16a74.17,74.17,0,0,1,15.57-2.62" transform="translate(-204.07 -131.3)"/><path class="cls-6" d="M298.23,339.6a74.29,74.29,0,0,1,15.68,1.87" transform="translate(-204.07 -131.3)"/><path class="cls-11" d="M275.92,170.48a31.6,31.6,0,0,0,24.81,0s-5.11-16.46-12.41-16.24C288.32,154.24,281.91,152.45,275.92,170.48Z" transform="translate(-204.07 -131.3)"/><polyline class="cls-9" points="63.72 262.06 63.73 263.05 63.26 262.68"/><line class="cls-9" x1="67.27" y1="260.6" x2="67.27" y2="265.26"/><line class="cls-9" x1="104.82" y1="260.11" x2="104.82" y2="265.33"/><line class="cls-9" x1="71.41" y1="258.79" x2="71.41" y2="267.25"/><line class="cls-9" x1="101.43" y1="258.63" x2="101.43" y2="266.78"/><line class="cls-9" x1="75.24" y1="257.13" x2="75.24" y2="268.56"/><line class="cls-9" x1="97.01" y1="256.84" x2="97.01" y2="268.27"/><line class="cls-2" x1="79.72" y1="256.17" x2="79.72" y2="269.44"/><line class="cls-2" x1="92.62" y1="255.92" x2="92.62" y2="269.19"/><line class="cls-9" x1="84.01" y1="255.72" x2="84.01" y2="269.44"/><line class="cls-2" x1="88.46" y1="256.17" x2="88.46" y2="269.84"/></svg>